{
    "asset" : {
        "generator" : "Khronos glTF Blender I/O v1.7.33",
        "version" : "2.0"
    },
    "scene" : 0,
    "scenes" : [
        {
            "name" : "Scene",
            "nodes" : [
                0,
                1
            ]
        }
    ],
    "nodes" : [
        {
            "mesh" : 0,
            "name" : "Sphere001",
            "translation" : [
                -0.550000011920929,
                0,
                0
            ]
        },
        {
            "mesh" : 1,
            "name" : "Sphere002",
            "translation" : [
                0.550000011920929,
                0,
                0
            ]
        }
    ],
    "materials" : [
        {
            "name" : "Wicker no Normal",
            "pbrMetallicRoughness" : {
                "baseColorFactor" : [
                    0.501960813999176,
                    0.4392157196998596,
                    0.3529411852359772,
                    1
                ],
                "metallicFactor" : 0,
                "roughnessFactor" : 0.25
            }
        },
        {
            "name" : "Wicker with Normal",
            "normalTexture" : {
                "index" : 0
            },
            "pbrMetallicRoughness" : {
                "baseColorFactor" : [
                    0.501960813999176,
                    0.4431372880935669,
                    0.3529411852359772,
                    1
                ],
                "metallicFactor" : 0,
                "roughnessFactor" : 0.25
            }
        }
    ],
    "meshes" : [
        {
            "name" : "Sphere001",
            "primitives" : [
                {
                    "attributes" : {
                        "POSITION" : 0,
                        "NORMAL" : 1
                    },
                    "indices" : 2,
                    "material" : 0
                }
            ]
        },
        {
            "name" : "Sphere002",
            "primitives" : [
                {
                    "attributes" : {
                        "POSITION" : 3,
                        "NORMAL" : 4,
                        "TANGENT" : 5,
                        "TEXCOORD_0" : 6
                    },
                    "indices" : 7,
                    "material" : 1
                }
            ]
        }
    ],
    "textures" : [
        {
            "sampler" : 0,
            "source" : 0
        }
    ],
    "images" : [
        {
            "mimeType" : "image/jpeg",
            "name" : "Compare_Normal_img0",
            "uri" : "Compare_Normal_img0.jpg"
        }
    ],
    "accessors" : [
        {
            "bufferView" : 0,
            "componentType" : 5126,
            "count" : 1538,
            "max" : [
                0.5000792145729065,
                0.4901543855667114,
                0.5000792145729065
            ],
            "min" : [
                -0.5000792145729065,
                -0.4901544749736786,
                -0.5000792145729065
            ],
            "type" : "VEC3"
        },
        {
            "bufferView" : 1,
            "componentType" : 5126,
            "count" : 1538,
            "type" : "VEC3"
        },
        {
            "bufferView" : 2,
            "componentType" : 5123,
            "count" : 9216,
            "type" : "SCALAR"
        },
        {
            "bufferView" : 3,
            "componentType" : 5126,
            "count" : 1734,
            "max" : [
                0.5000792145729065,
                0.4901543855667114,
                0.5000792145729065
            ],
            "min" : [
                -0.5000792145729065,
                -0.4901544749736786,
                -0.5000792145729065
            ],
            "type" : "VEC3"
        },
        {
            "bufferView" : 4,
            "componentType" : 5126,
            "count" : 1734,
            "type" : "VEC3"
        },
        {
            "bufferView" : 5,
            "componentType" : 5126,
            "count" : 1734,
            "type" : "VEC4"
        },
        {
            "bufferView" : 6,
            "componentType" : 5126,
            "count" : 1734,
            "type" : "VEC2"
        },
        {
            "bufferView" : 7,
            "componentType" : 5123,
            "count" : 9216,
            "type" : "SCALAR"
        }
    ],
    "bufferViews" : [
        {
            "buffer" : 0,
            "byteLength" : 18456,
            "byteOffset" : 0
        },
        {
            "buffer" : 0,
            "byteLength" : 18456,
            "byteOffset" : 18456
        },
        {
            "buffer" : 0,
            "byteLength" : 18432,
            "byteOffset" : 36912
        },
        {
            "buffer" : 0,
            "byteLength" : 20808,
            "byteOffset" : 55344
        },
        {
            "buffer" : 0,
            "byteLength" : 20808,
            "byteOffset" : 76152
        },
        {
            "buffer" : 0,
            "byteLength" : 27744,
            "byteOffset" : 96960
        },
        {
            "buffer" : 0,
            "byteLength" : 13872,
            "byteOffset" : 124704
        },
        {
            "buffer" : 0,
            "byteLength" : 18432,
            "byteOffset" : 138576
        }
    ],
    "samplers" : [
        {
            "magFilter" : 9729,
            "minFilter" : 9987
        }
    ],
    "buffers" : [
        {
            "byteLength" : 157008,
            "uri" : "CompareNormal.bin"
        }
    ]
}
